<?xml version="1.0" encoding="UTF-8"?>
<svg version="1.1" xmlns="http://www.w3.org/2000/svg" width="836" height="634">
<path d="M0 0 C0.93292374 -0.0049649 1.86584747 -0.00992981 2.82704163 -0.01504517 C5.89308429 -0.02956886 8.95907517 -0.0364534 12.02514648 -0.04199219 C13.08027876 -0.04481956 14.13541103 -0.04764694 15.22251701 -0.05056 C20.80948 -0.06551514 26.39641743 -0.07476704 31.98339844 -0.07910156 C37.71684588 -0.08457193 43.45005414 -0.10858038 49.18342686 -0.13707352 C53.62504226 -0.15581981 58.0666015 -0.1609119 62.5082531 -0.16243744 C64.61988567 -0.16543893 66.73151785 -0.1733813 68.84311104 -0.18662262 C97.69970407 -0.35462072 120.96960125 6.61599426 142.39624023 26.78613281 C158.09842285 42.88271876 166.4472737 64.558023 166.46655273 86.91894531 C166.46796265 87.64735626 166.46937256 88.37576721 166.4708252 89.12625122 C166.4729627 91.51292747 166.46662895 93.89946982 166.45874023 96.28613281 C166.45718933 97.11592651 166.45563843 97.94572021 166.45404053 98.80065918 C166.39950122 123.96425826 165.79413229 149.10108027 164.33374023 174.22363281 C164.29194641 174.95159058 164.25015259 175.67954834 164.20709229 176.42956543 C164.08748971 178.47713819 163.9620439 180.52424486 163.83374023 182.57128906 C163.76155273 183.72765869 163.68936523 184.88402832 163.61499023 186.07543945 C163.36311203 188.83888441 162.94092187 191.45632839 162.33374023 194.16113281 C159.1401007 192.78253353 157.34012255 191.28004453 155.14624023 188.59863281 C152.50123339 185.46653691 149.7575894 182.53517194 146.83374023 179.66113281 C142.78662827 175.66220076 139.00059661 171.5092171 135.33374023 167.16113281 C134.06198692 165.86406151 134.06198692 165.86406151 132.76454163 164.54078674 C129.81275188 160.97263139 129.6463687 157.56860314 129.73779297 153.06713867 C129.73373444 152.27759796 129.7296759 151.48805725 129.72549438 150.67459106 C129.71999304 148.9673403 129.72594094 147.26002191 129.74215508 145.55283928 C129.76768263 142.83891098 129.76274 140.12649411 129.7502594 137.41249084 C129.7295386 131.6410378 129.74913855 125.87005471 129.77124023 120.09863281 C129.79243658 113.42959204 129.79669143 106.76104376 129.7707386 100.09201241 C129.76741327 97.43923007 129.78848405 94.78741882 129.81114197 92.13475037 C129.8415034 75.63076795 126.01412038 62.45404621 114.77124023 49.91113281 C105.13255137 40.76190862 92.37513221 36.86425039 79.39794922 36.85473633 C78.42455093 36.84641281 77.45115265 36.83808929 76.44825745 36.82951355 C73.24207508 36.80549425 70.03609669 36.79664957 66.82983398 36.79003906 C64.58651166 36.78106395 62.34318993 36.77194195 60.09986877 36.76268005 C55.39843292 36.7462075 50.69706811 36.73849355 45.99560547 36.7355957 C40.00289392 36.73022544 34.01086072 36.69259318 28.01834011 36.64685154 C23.38287488 36.61694328 18.74756996 36.6098691 14.11201668 36.60886955 C11.90464242 36.60469165 9.6972666 36.59235635 7.48998833 36.57135201 C-9.96834317 36.4184927 -24.09060562 37.91726752 -37.66625977 50.16113281 C-48.79726308 61.63521499 -52.98813604 75.02679248 -52.94091797 90.73486328 C-52.9460289 91.63388367 -52.95113983 92.53290405 -52.95640564 93.45916748 C-52.97018182 96.39895488 -52.96935395 99.33850468 -52.96704102 102.27832031 C-52.9709345 104.34278448 -52.9752705 106.40724785 -52.98002625 108.47171021 C-52.98746273 112.78699344 -52.98721587 117.10219482 -52.98193359 121.41748047 C-52.97614226 126.92026573 -52.99307461 132.42271404 -53.01627827 137.92544365 C-53.03108053 142.18594285 -53.0318785 146.44636211 -53.02876854 150.70688248 C-53.02927848 152.73446444 -53.03445412 154.76205126 -53.04458046 156.789608 C-53.12416368 174.95050556 -51.48282416 191.1422307 -38.41625977 205.09863281 C-27.22685036 215.46976908 -13.54111762 219.30217492 1.36157227 219.32226562 C2.69459633 219.32971298 2.69459633 219.32971298 4.05455017 219.33731079 C6.98355903 219.35186907 9.91251369 219.3587248 12.84155273 219.36425781 C14.34987482 219.36849888 14.34987482 219.36849888 15.88866806 219.37282562 C21.21280936 219.38779491 26.53692373 219.39703788 31.86108398 219.40136719 C37.33481675 219.40684001 42.80829928 219.4308495 48.28195381 219.45933914 C52.51328222 219.47805544 56.74455152 219.48317595 60.97591782 219.48470306 C62.99234252 219.48771122 65.00876664 219.4956769 67.0251503 219.50888824 C80.32810433 219.58980918 92.11836434 218.99119858 104.33374023 213.16113281 C102.33769932 210.82430443 100.33812657 208.49079237 98.33374023 206.16113281 C97.74592773 205.47792969 97.15811523 204.79472656 96.55249023 204.09082031 C93.91905223 201.05312647 91.29696155 198.07213634 88.39624023 195.28613281 C86.33374023 193.16113281 86.33374023 193.16113281 86.33374023 191.16113281 C85.67374023 191.16113281 85.01374023 191.16113281 84.33374023 191.16113281 C82.88842773 189.69238281 82.88842773 189.69238281 81.20874023 187.66113281 C78.69116122 184.6943592 76.11205047 181.88539032 73.33374023 179.16113281 C70.0834404 175.96083759 67.08649778 172.61888705 64.11499023 169.16113281 C62.25948813 167.07776203 60.32150923 165.11832074 58.33374023 163.16113281 C55.7339184 160.60123147 53.27105626 157.99333741 50.89624023 155.22363281 C47.61921066 151.40914053 44.11805789 147.88784818 40.48217773 144.41503906 C38.33374023 142.16113281 38.33374023 142.16113281 36.87280273 139.81347656 C35.18187811 137.16498412 34.06376485 135.76702964 31.33374023 134.16113281 C27.42765823 133.64627992 23.52691813 133.91108555 19.60253906 134.08886719 C10.22717606 134.44508918 3.24221251 131.80659513 -4.04125977 125.84863281 C-13.13138432 117.11757763 -16.96936184 108.9140203 -17.66625977 96.34082031 C-17.66625977 86.03024383 -13.57211572 77.5404177 -6.63891602 70.04785156 C0.83971156 62.89502558 9.57082501 59.15628884 19.95874023 58.84863281 C30.00398947 59.27761143 38.60749183 62.65024933 46.33374023 69.16113281 C46.33374023 69.82113281 46.33374023 70.48113281 46.33374023 71.16113281 C46.99374023 71.16113281 47.65374023 71.16113281 48.33374023 71.16113281 C49.98999023 73.32128906 49.98999023 73.32128906 51.83374023 76.22363281 C52.44217773 77.16335937 53.05061523 78.10308594 53.67749023 79.07128906 C56.90754124 85.09716252 57.64131053 90.60011302 57.52124023 97.28613281 C57.52027344 98.32060547 57.52027344 98.32060547 57.51928711 99.37597656 C57.49361596 102.35953503 57.37865833 105.00057942 56.57202148 107.88378906 C56.05827845 110.30551665 56.05827845 110.30551665 57.95874023 112.33691406 C58.74249023 113.04203125 59.52624023 113.74714844 60.33374023 114.47363281 C63.97701567 117.803045 67.23093005 121.27981241 70.45092773 125.0090332 C73.65183154 128.66774262 76.99562011 132.19046927 80.33374023 135.72363281 C81.34307617 136.79774414 81.34307617 136.79774414 82.37280273 137.89355469 C85.57591467 141.29145046 88.80504454 144.65217934 92.11889648 147.94238281 C94.44265412 150.25000782 96.65980274 152.59232909 98.77124023 155.09863281 C101.18991802 157.90689628 103.69273706 160.56083874 106.33374023 163.16113281 C108.93356207 165.72103416 111.39642421 168.32892821 113.77124023 171.09863281 C117.04384517 174.90797478 120.56474461 178.4093439 124.13842773 181.93457031 C126.77380766 184.60746455 129.21140512 187.41481584 131.65405273 190.26269531 C133.85539417 192.75072307 136.21462539 195.05307359 138.58374023 197.37988281 C141.04008872 199.88009467 143.29683391 202.53793797 145.58374023 205.19238281 C147.27172309 207.09136353 149.02143757 208.8811927 150.83374023 210.66113281 C153.20598125 212.99138727 155.42487541 215.38217687 157.58374023 217.91113281 C160.51653665 221.31951783 163.63447311 224.50512095 166.83374023 227.66113281 C169.92867004 230.71449901 172.9530838 233.7843706 175.77124023 237.09863281 C179.26883075 241.20303421 183.0890775 244.94406698 186.92236328 248.73022461 C190.33716883 252.11924588 193.55815596 255.60679981 196.66577148 259.28222656 C199.21962354 262.1590482 202.02192041 264.77265621 204.82983398 267.39941406 C206.33374023 269.16113281 206.33374023 269.16113281 206.33374023 272.16113281 C200.00386326 272.49358531 193.67626534 272.7195109 187.33959961 272.87524414 C185.1896559 272.9402132 183.04027754 273.02863173 180.89233398 273.1418457 C162.09891969 274.10684212 162.09891969 274.10684212 156.47265625 269.5324707 C153.80483354 266.87060986 151.61352655 263.93858794 149.50164795 260.82473755 C147.80976924 258.41477194 145.81390771 256.35396081 143.76733398 254.24316406 C143.09766602 253.52708984 142.42799805 252.81101562 141.73803711 252.07324219 C140.76447266 251.03393555 140.76447266 251.03393555 139.77124023 249.97363281 C139.08739258 249.23822266 138.40354492 248.5028125 137.69897461 247.74511719 C137.0409082 247.04322266 136.3828418 246.34132813 135.70483398 245.61816406 C135.12660889 244.99917236 134.54838379 244.38018066 133.95263672 243.74243164 C132.21768606 241.95045342 132.21768606 241.95045342 129.33374023 240.16113281 C128.48553711 240.680625 127.63733398 241.20011719 126.76342773 241.73535156 C112.29682496 250.40948328 97.72291158 255.46822763 80.72192383 255.45166016 C79.71228577 255.45837738 78.70264771 255.4650946 77.66241455 255.47201538 C74.35228435 255.49088172 71.04235823 255.49491413 67.73217773 255.49707031 C65.40825317 255.50350717 63.08432941 255.51023617 60.76040649 255.51724243 C55.89697392 255.52918761 51.03361222 255.5329262 46.17016602 255.53173828 C39.97717807 255.5315355 33.78465107 255.55880865 27.59177208 255.5932827 C22.79238857 255.61566292 17.99311394 255.61957239 13.19368362 255.61851883 C10.91261842 255.62085919 8.63154948 255.62959302 6.35053635 255.64518356 C-21.02943752 255.81477713 -44.25952513 249.61247178 -64.41625977 229.97363281 C-84.80293789 209.29580308 -89.14805273 184.95894623 -89.09985352 156.95019531 C-89.10442471 154.60956675 -89.10973304 152.26893953 -89.11573792 149.92831421 C-89.1246311 145.04167196 -89.12228936 140.15519347 -89.11230469 135.26855469 C-89.10082209 129.04651136 -89.12103589 122.82503619 -89.15022182 116.6030674 C-89.16868194 111.77451057 -89.16827184 106.94608743 -89.1625843 102.11750412 C-89.16243228 99.82528258 -89.16837693 97.53305127 -89.18087578 95.2408638 C-89.24174273 82.2508529 -88.71008529 70.58104452 -84.66625977 58.16113281 C-84.36566147 57.22330963 -84.06506317 56.28548645 -83.75535583 55.31924438 C-76.84621429 35.00708773 -59.47403672 18.66576393 -41.04516602 8.75097656 C-28.08263111 2.45268694 -14.3029364 0.01850445 0 0 Z " fill="#FFFFFF" transform="translate(372.666259765625,144.8388671875)"/>
<path d="M0 0 C14.12763238 10.99895451 23.55555522 26.49360679 26.51953125 44.21484375 C28.9790039 64.55942892 24.70429756 83.426446 12.46484375 99.9609375 C9.04368318 104.06949061 5.1166247 107.5446612 0.96484375 110.8984375 C3.10984967 114.75944816 5.56809046 117.80982685 8.58984375 121.0234375 C12.86637465 125.6485648 16.89571458 130.40421657 20.84765625 135.3125 C23.38549017 138.41221597 26.04311824 141.38743984 28.75 144.33984375 C29.96484375 145.8984375 29.96484375 145.8984375 29.96484375 147.8984375 C24.16695676 148.19710028 18.37361845 148.41369767 12.56982422 148.55761719 C10.60028045 148.61764261 8.63126433 148.69930155 6.66357422 148.80371094 C-10.58431689 149.69539107 -10.58431689 149.69539107 -15.47314453 145.35400391 C-18.09803635 142.47144738 -20.05497982 139.25174054 -22.03515625 135.8984375 C-23.38391973 134.16931493 -24.75430019 132.45646944 -26.16015625 130.7734375 C-29.03515625 127.15650202 -29.03515625 127.15650202 -29.03515625 124.8984375 C-30.21078125 125.0634375 -31.38640625 125.2284375 -32.59765625 125.3984375 C-55.77865949 127.86141909 -75.86832708 123.09660228 -94.62890625 108.94140625 C-107.88524466 97.91491489 -116.42853928 81.03568514 -118.03515625 63.8984375 C-119.28403237 42.48913263 -113.80550054 24.67485786 -99.7890625 8.26953125 C-74.63460915 -18.78493007 -29.56497428 -20.47098605 0 0 Z M-74.2421875 29.515625 C-81.68724773 39.40993163 -82.74052773 50.94559711 -82.03515625 62.8984375 C-80.46831019 72.6202855 -76.44743001 80.36857728 -69.03515625 86.8984375 C-68.31779297 87.54619141 -68.31779297 87.54619141 -67.5859375 88.20703125 C-60.76332215 93.77415322 -51.33500831 95.57660703 -42.66796875 95.2421875 C-33.17963292 94.00335433 -24.69263705 90.93250307 -18.03515625 83.8984375 C-9.63525935 72.91395694 -8.03770093 61.3435886 -9.03515625 47.8984375 C-10.75429185 37.77019678 -16.13199887 29.3826564 -24.03515625 22.8984375 C-39.88663776 12.09519851 -61.50672863 16.14466419 -74.2421875 29.515625 Z " fill="#FFFFFF" transform="translate(134.03515625,456.1015625)"/>
<path d="M0 0 C13.2 0 26.4 0 40 0 C41.31355469 3.45855469 42.62710938 6.91710937 43.98046875 10.48046875 C45.2679205 13.8697348 46.55546473 17.25896571 47.84301758 20.64819336 C48.73048386 22.98441973 49.61785559 25.32068202 50.50512695 27.65698242 C52.98520755 34.18725655 55.46748129 40.71668835 57.95257568 47.24505615 C58.8689774 49.6553833 59.78214103 52.06689827 60.69384766 54.47900391 C61.14163574 55.65769043 61.58942383 56.83637695 62.05078125 58.05078125 C62.41469971 59.01282471 62.77861816 59.97486816 63.15356445 60.96606445 C63.83093039 62.95798098 63.83093039 62.95798098 65 64 C65.26895584 63.28669525 65.53791168 62.5733905 65.8150177 61.83847046 C68.35677741 55.09913131 70.90162238 48.36096914 73.44989491 41.62409019 C74.75971069 38.16099916 76.06835111 34.69747369 77.37426758 31.23291016 C78.6358303 27.88614913 79.90052972 24.54058881 81.16736412 21.19581985 C81.64886839 19.92288647 82.12926266 18.64953262 82.60849953 17.37574387 C83.28264302 15.5844924 83.96119003 13.79490012 84.63989258 12.00537109 C85.02405838 10.98833099 85.40822418 9.97129089 85.80403137 8.9234314 C87.04857939 5.8812523 88.53005079 2.93989842 90 0 C102.54 0 115.08 0 128 0 C125.75008535 6.74974394 125.75008535 6.74974394 124.33032227 9.94604492 C124.01064484 10.66941544 123.69096741 11.39278595 123.36160278 12.13807678 C123.01668793 12.91106613 122.67177307 13.68405548 122.31640625 14.48046875 C121.9494162 15.30892807 121.58242615 16.13738739 121.20431519 16.99095154 C119.99287127 19.72424836 118.77764285 22.45584587 117.5625 25.1875 C116.70616643 27.11819594 115.85013306 29.04902505 114.99438477 30.97998047 C113.21522754 34.99385938 111.43477877 39.00716145 109.65332031 43.02001953 C105.57125633 52.21720282 101.50422034 61.42102467 97.4375 70.625 C97.0482132 71.50576202 96.65892639 72.38652405 96.25784302 73.29397583 C90.31972663 86.7293994 84.40297297 100.17410142 78.5 113.625 C77.93720337 114.90712372 77.93720337 114.90712372 77.36303711 116.21514893 C74.00437682 123.86667246 70.646255 131.518418 67.30001831 139.17538452 C66.497619 141.01096053 65.69414484 142.84606657 64.890625 144.68115234 C63.95246601 146.82384946 63.01613503 148.96734832 62.08203125 151.11181641 C61.68242188 152.02366699 61.2828125 152.93551758 60.87109375 153.875 C60.53005615 154.65617188 60.18901855 155.43734375 59.83764648 156.2421875 C59 158 59 158 58 159 C55.1883662 159.08861992 52.40141745 159.11522355 49.58984375 159.09765625 C48.74780899 159.0962413 47.90577423 159.09482635 47.03822327 159.09336853 C44.33794665 159.08775263 41.63775172 159.07519748 38.9375 159.0625 C37.11132932 159.05748705 35.28515734 159.05292379 33.45898438 159.04882812 C28.97262458 159.03777804 24.48632616 159.02050279 20 159 C23.76414609 148.95189725 28.49831448 139.35809081 33.125 129.6875 C34.3626829 127.09617676 35.5994479 124.50442521 36.83444214 121.91181946 C37.59848002 120.30830168 38.3641252 118.70554843 39.13162231 117.10368347 C39.80965201 115.68220396 40.48161865 114.25780851 41.14605713 112.82992554 C41.84786578 111.32601045 42.5763362 109.83456541 43.31201172 108.34692383 C45.01422728 102.54018209 41.94960501 97.1076019 39.59765625 91.88671875 C39.24825989 91.09614075 38.89886353 90.30556274 38.53887939 89.49102783 C37.38638563 86.88700705 36.22440922 84.28733149 35.0625 81.6875 C34.2540773 79.86498575 33.44638998 78.04214514 32.6394043 76.21899414 C30.95319517 72.41100556 29.26378475 68.60446076 27.57226562 64.79882812 C23.8421605 56.39921013 20.15388172 47.98125255 16.46408081 39.56387329 C14.98870163 36.19902347 13.51140666 32.835017 12.03379822 29.47114563 C11.34627453 27.90522034 10.65929783 26.33905476 9.97291565 24.77262878 C8.30053915 20.95626116 6.62094779 17.1433828 4.92724609 13.33642578 C4.59919479 12.59574356 4.27114349 11.85506134 3.93315125 11.0919342 C3.31357718 9.69334512 2.69117883 8.29600262 2.06550598 6.90013123 C0 2.22529611 0 2.22529611 0 0 Z " fill="#FFFFFF" transform="translate(689,472)"/>
<path d="M0 0 C11.55 0 23.1 0 35 0 C35.05607422 6.8990625 35.05607422 6.8990625 35.11328125 13.9375 C35.14358202 16.86331765 35.17474349 19.78907602 35.20898438 22.71484375 C35.26316911 27.3516937 35.31428401 31.98842638 35.34643555 36.62548828 C35.37257753 40.36692419 35.41305519 44.10796297 35.46318626 47.84915161 C35.47978179 49.27152541 35.49134139 50.69396778 35.49761391 52.11642456 C35.20852638 64.08562592 35.20852638 64.08562592 40.34516907 74.50732422 C45.90476045 79.47762409 51.07622993 80.40494667 58.28125 80.25 C63.3944163 79.77982379 66.66077338 78.03485694 70.75 74.875 C76.86033258 67.06735281 76.4681973 57.85887404 76.51171875 48.33984375 C76.52859534 46.94021562 76.54674951 45.54060236 76.56611633 44.14100647 C76.61329982 40.48658908 76.64331244 36.83223204 76.66955566 33.1776123 C76.69952253 29.43664721 76.74583933 25.69588537 76.79101562 21.95507812 C76.87821154 14.63670466 76.938426 7.31881282 77 0 C88.55 0 100.1 0 112 0 C112 35.97 112 71.94 112 109 C100.45 109 88.9 109 77 109 C76.67 105.04 76.34 101.08 76 97 C74.7625 98.051875 73.525 99.10375 72.25 100.1875 C65.23949822 105.63888387 56.95263166 109.49324726 48 110 C47.36320312 110.05027344 46.72640625 110.10054687 46.0703125 110.15234375 C32.87245786 110.75664112 21.04914974 106.62805315 11.25 97.875 C0.18722547 86.05378466 -0.29846432 71.33536312 -0.1953125 56.15234375 C-0.19157618 54.52853063 -0.18873214 52.90471524 -0.18673706 51.28089905 C-0.1791493 47.03453196 -0.15954329 42.78830458 -0.1373291 38.54199219 C-0.11314133 33.43238461 -0.10406653 28.32272997 -0.09242249 23.21308136 C-0.07311546 15.4752908 -0.0347593 7.73780599 0 0 Z " fill="#FFFFFF" transform="translate(178,472)"/>
<path d="M0 0 C0.80671143 -0.01385742 1.61342285 -0.02771484 2.44458008 -0.04199219 C8.77958 0.00942936 12.85886558 1.59502197 17.625 5.9375 C20.71756012 9.98393418 21.18924353 14.39275908 20.8125 19.375 C19.55978852 24.15659154 17.5220943 27.28189637 13.25 29.8125 C9.42101196 31.55294911 6.56753335 32.49216531 2.41015625 32.5859375 C1.53004883 32.61204102 0.64994141 32.63814453 -0.25683594 32.66503906 C-1.20333008 32.69307617 -2.14982422 32.72111328 -3.125 32.75 C-35.91730355 34.0315383 -69.11138431 42.29796742 -93.296875 65.72265625 C-95.1875 67.375 -95.1875 67.375 -97.1875 67.375 C-97.4246875 67.92929688 -97.661875 68.48359375 -97.90625 69.0546875 C-99.4902388 71.92325258 -101.49421208 74.06378462 -103.6875 76.5 C-121.84182875 97.58126473 -130.31677094 126.88494739 -133.63671875 154.05078125 C-134.46133684 160.7309443 -134.9858176 164.88263792 -140.1875 169.375 C-144.64049534 172.34366356 -148.90712505 173.31282721 -154.1875 172.375 C-157.9657471 170.83961672 -161.75684968 168.70115306 -164.1875 165.375 C-172.58394262 144.29262777 -158.58069781 111.1008871 -150.35253906 91.32568359 C-144.76968335 78.40034083 -137.40592248 66.04993323 -128.1875 55.375 C-127.77306641 54.89498535 -127.35863281 54.4149707 -126.93164062 53.92041016 C-107.09566918 31.16779552 -82.17049506 15.74115919 -53.1875 7.375 C-52.51170898 7.17922363 -51.83591797 6.98344727 -51.13964844 6.78173828 C-34.61105968 2.1409256 -17.13667265 0.17334089 0 0 Z " fill="#FFFFFF" transform="translate(292.1875,20.625)"/>
<path d="M0 0 C28.38 0 56.76 0 86 0 C86 28 86 28 77 38 C75.56506498 39.73505214 74.14363619 41.4816045 72.75 43.25 C68.65607469 48.31730615 64.27927312 53.05034535 59.81542969 57.7878418 C55.65182575 62.2314291 51.77302841 66.81504797 48 71.59765625 C45.82719311 74.20757078 43.4013271 76.5986729 41 79 C56.18 79.33 71.36 79.66 87 80 C87 89.57 87 99.14 87 109 C58.29 109 29.58 109 0 109 C0 80 0 80 4.9375 72.875 C6.93316393 71.21918665 8.95352541 69.59258723 11 68 C12.59262932 66.16809035 14.13671594 64.29264743 15.625 62.375 C18.48881783 58.81815864 21.42346328 55.37460948 24.5 52 C28.41492112 47.70246879 32.11465828 43.26448247 35.76171875 38.73828125 C38.45261074 35.44628249 41.23293828 32.22823868 44 29 C22.22 28.505 22.22 28.505 0 28 C0 18.76 0 9.52 0 0 Z " fill="#FFFFFF" transform="translate(466,472)"/>
<path d="M0 0 C28.38 0 56.76 0 86 0 C86 28 86 28 77 38 C75.56506498 39.73505214 74.14363619 41.4816045 72.75 43.25 C68.65607469 48.31730615 64.27927312 53.05034535 59.81542969 57.7878418 C55.65182575 62.2314291 51.77302841 66.81504797 48 71.59765625 C45.82719311 74.20757078 43.4013271 76.5986729 41 79 C56.18 79.33 71.36 79.66 87 80 C87 89.57 87 99.14 87 109 C58.29 109 29.58 109 0 109 C0 80 0 80 4.9375 72.875 C6.93316393 71.21918665 8.95352541 69.59258723 11 68 C12.59262932 66.16809035 14.13671594 64.29264743 15.625 62.375 C18.48881783 58.81815864 21.42346328 55.37460948 24.5 52 C28.41492112 47.70246879 32.11465828 43.26448247 35.76171875 38.73828125 C38.45261074 35.44628249 41.23293828 32.22823868 44 29 C22.22 28.505 22.22 28.505 0 28 C0 18.76 0 9.52 0 0 Z " fill="#FFFFFF" transform="translate(367,472)"/>
<path d="M0 0 C0 9.57 0 19.14 0 29 C-3.96 29.66 -7.92 30.32 -12 31 C-15.89442719 34.4472136 -15.89442719 34.4472136 -18 43 C-11.73 43 -5.46 43 1 43 C1 52.24 1 61.48 1 71 C-5.27 71 -11.54 71 -18 71 C-18 97.73 -18 124.46 -18 152 C-29.55 152 -41.1 152 -53 152 C-53 125.27 -53 98.54 -53 71 C-56.96 71 -60.92 71 -65 71 C-65 61.76 -65 52.52 -65 43 C-61.04 43 -57.08 43 -53 43 C-53.04125 41.88625 -53.0825 40.7725 -53.125 39.625 C-53.071054 29.41122374 -50.27726802 19.91885822 -43.5 12.125 C-42.675 11.42375 -41.85 10.7225 -41 10 C-40.2575 9.319375 -39.515 8.63875 -38.75 7.9375 C-26.69665139 -0.55463198 -14.16697708 -0.20988114 0 0 Z " fill="#FFFFFF" transform="translate(686,429)"/>
<path d="M0 0 C1.67352539 -0.02416992 1.67352539 -0.02416992 3.38085938 -0.04882812 C11.75192288 -0.05373209 20.37541615 0.25789921 26.625 6.4375 C29.60321254 10.4678446 30.55050058 14.33831861 30.0625 19.3125 C28.54723077 25.13322388 25.42179019 28.32880112 20.35668945 31.34912109 C16.33201828 33.03916605 12.6245569 32.49228676 8.375 32 C-8.20778921 30.65865553 -22.0181828 33.77157695 -35.40234375 44.09375 C-46.95958317 54.20856046 -52.16239866 66.81041653 -53.91333008 81.77709961 C-54.73045515 88.48785264 -56.61489559 92.96710796 -62.13671875 97.296875 C-65.57572917 99.23644704 -69.04188123 99.55003773 -72.9375 99.3125 C-77.58288923 97.86557549 -80.94545519 96.1910766 -83.9375 92.3125 C-88.94586018 80.24690501 -84.26111966 64.91204196 -79.6875 53.3125 C-74.49673451 41.51809795 -67.96564035 32.35348266 -58.9375 23.3125 C-58.20660156 22.57 -57.47570312 21.8275 -56.72265625 21.0625 C-41.46318449 6.51343196 -20.71752055 -0.05963593 0 0 Z " fill="#FFFFFF" transform="translate(296.9375,84.6875)"/>
<path d="M0 0 C11.55 0 23.1 0 35 0 C35 35.97 35 71.94 35 109 C23.45 109 11.9 109 0 109 C0 73.03 0 37.06 0 0 Z " fill="#FFFFFF" transform="translate(571,472)"/>
<path d="M0 0 C11.55 0 23.1 0 35 0 C35 35.97 35 71.94 35 109 C23.45 109 11.9 109 0 109 C0 73.03 0 37.06 0 0 Z " fill="#FFFFFF" transform="translate(314,472)"/>
<path d="M0 0 C3.91098328 3.46655336 6.68542379 6.29546171 7.30078125 11.5859375 C7.3240065 17.1135481 7.32373299 21.34677381 4 26 C-1.41773593 31.2973418 -5.91486811 33.06554391 -13.375 33.3125 C-19.31810967 33.16734942 -24.34138332 32.50769084 -28.7890625 28.3125 C-33.55630306 22.89004629 -34.42294415 19.37354195 -34.3359375 12.1171875 C-33.8315695 7.43712161 -32.32765333 4.31965416 -29 1 C-20.31411963 -5.00656646 -9.02899642 -5.8793465 0 0 Z " fill="#FFFFFF" transform="translate(602,429)"/>
<path d="M0 0 C3.91098328 3.46655336 6.68542379 6.29546171 7.30078125 11.5859375 C7.3240065 17.1135481 7.32373299 21.34677381 4 26 C-1.41773593 31.2973418 -5.91486811 33.06554391 -13.375 33.3125 C-19.31810967 33.16734942 -24.34138332 32.50769084 -28.7890625 28.3125 C-33.55630306 22.89004629 -34.42294415 19.37354195 -34.3359375 12.1171875 C-33.8315695 7.43712161 -32.32765333 4.31965416 -29 1 C-20.31411963 -5.00656646 -9.02899642 -5.8793465 0 0 Z " fill="#FFFFFF" transform="translate(345,429)"/>
<path d="M0 0 C0.33 0 0.66 0 1 0 C1 7.59 1 15.18 1 23 C0.67 23 0.34 23 0 23 C0 15.41 0 7.82 0 0 Z " fill="#FFFFFF" transform="translate(834,239)"/>
<path d="M0 0 C0.33 0 0.66 0 1 0 C1 2.97 1 5.94 1 9 C0.67 9 0.34 9 0 9 C0 6.03 0 3.06 0 0 Z " fill="#FFFFFF" transform="translate(835,227)"/>
<path d="" fill="#FFFFFF" transform="translate(0,0)"/>
<path d="" fill="#FFFFFF" transform="translate(0,0)"/>
</svg>
